<svg version="1.2" xmlns="http://www.w3.org/2000/svg" viewBox="0 0 595 842" width="595" height="842">
	<style>
		tspan { white-space:pre } 
		.s0 { fill: #d2ff52 } 
	</style>
	<path id="&lt;Path&gt;" class="s0" d="m487.55 385.71c-7.98 11.62-14.82 21.71-21.78 31.71-23.88 34.26-55.3 57.56-96.07 68.61-29.78 8.08-57.26 4.21-81.41-14.19-24.13-18.38-46.71-38.8-69.81-58.51-11.56-9.86-22.2-20.86-34.24-30.05-21.29-16.25-36.21-16.36-59.06-2.25-27.2 16.79-44.4 43.87-51.5 82.02-17.07-2.72-18.33-16.15-15.88-27.66 3.1-14.59 8.29-29.59 16.27-42.05 8.98-14.03 20.6-27.28 33.66-37.59 32.47-25.65 62.72-26.12 95.82-1.51 19.28 14.35 36.17 31.89 54.47 47.61 16.95 14.55 34.04 28.95 51.62 42.73 13.39 10.49 28.89 12.87 45.71 9.79 25.54-4.67 47.07-16.38 65.07-34.86 3.73-3.84 7.3-7.88 10.58-12.11 14.56-18.81 28.99-37.71 44.8-58.31-35.5 9.04-68.58 17.5-101.71 25.7-0.71 0.18-2.13-2.58-3.97-4.94 2-2.37 3.62-5.96 6.34-7.25 31.43-14.9 62.42-30.99 94.77-43.59 24.81-9.67 40-1.91 46.96 23.9 5.98 22.16 7.67 45.69 8.98 68.74 0.32 5.69-7.12 14.39-13.03 16.89-3.56 1.51-13.42-5-16.25-10.2-4.88-8.96-6.49-19.7-10.34-32.63z"/>
	<g id="Layer 1">
	</g>
</svg>