<svg version="1.2" xmlns="http://www.w3.org/2000/svg" viewBox="0 0 595 842" width="595" height="842">
	<style>
		tspan { white-space:pre } 
		.s0 { fill: #d2ff52 } 
	</style>
	<g id="Layer 1">
		<path id="&lt;Compound Path&gt;" class="s0" d="m268.07 462.05c72.33 27.3 155.18-10.5 222.08-101.13-20.22 0.6-34.47 25.78-55.57 12.89-0.52-3.39-1.78-6.5-0.99-7.17 23.78-20.03 47.3-40.42 71.96-59.31 8.35-6.4 20.04-4.13 23.13 7.02 6.51 23.47 13.89 47.19 10.75 76.79-10.95-8.41-18.6-14.29-24.31-18.68-21.55 24.64-40.8 50.72-64.08 72.48-54.97 51.4-119.46 71.35-193.51 49.01-11.73-3.54-19.11-0.22-28.42 5.97-39.02 25.98-81.43 31.81-125.58 15.75-16.05-5.84-33.29-13.08-36.6-39.44 25.11 21.04 51.01 28.28 79.25 26.93 27.65-1.32 53.43-7.82 73.97-27.06-10.9-22.93-24-43.58-30.52-66.13-6.52-22.58-9.45-47.18-8.48-70.67 1-24.11 18.57-39.9 38.97-43.16 20.37-3.26 39.26 7.24 50.03 29.88 16.93 35.57 18.05 72.59 7.02 110.1-2.59 8.79-6.05 17.33-9.1 25.93zm-23.58-13.2c17.7-37.46 17.36-70.9 4.55-104.93-4.18-11.1-10.48-21.69-24.76-18.52-12.26 2.73-15.03 13.86-15.11 24.49-0.26 35.14 10.24 66.7 35.32 98.96z"/>
	</g>
</svg>