<svg version="1.2" xmlns="http://www.w3.org/2000/svg" viewBox="0 0 595 842" width="595" height="842">
	<style>
		tspan { white-space:pre } 
		.s0 { fill: #d2ff52 } 
	</style>
	<path id="&lt;Path&gt;" class="s0" d="m500.7 258.94c-17.46 13.93-28.4 0.73-39.19-10.15-10.2-10.29-19.49-21.48-33.55-29.9 6.39 19.6 12.81 39.18 19.17 58.79 16.6 51.2 23.59 103.06 12.89 156.67-26.24 131.43-184.94 188.07-285.53 100.06-62.7-54.85-89.55-128.25-95.45-209.98-0.41-5.71 1.99-11.63 9.18-17.83 1.78 7.94 3.88 15.83 5.3 23.84 10.45 58.64 31.11 112.96 68.53 159.95 23.93 30.06 54.29 51.35 92.26 58.86 84.74 16.75 169.84-47.91 178.75-133.94 6.24-60.18-8.98-116.18-30.74-173.39-17.19 22.21-8.65 56.05-40.4 75.41 5.79-27.04 10.95-48.52 14.88-70.23 3.41-18.84 5.2-37.97 8.14-56.9 3.11-20.05 12.49-27.42 29.69-18.38 16.46 8.65 31.23 21.74 44.34 35.22 14.6 15.02 26.5 32.67 41.73 51.9z"/>
	<g id="Layer 1">
	</g>
</svg>